<svg width="540" height="567" xmlns="http://www.w3.org/2000/svg">
<path fill-rule="evenodd" clip-rule="evenodd" d="M304.368 0.172184C357.404 2.29393 409.348 20.6634 449.619 55.2403C487.903 88.11 504.896 136.957 519.821 185.157C534.537 232.684 546.494 281.667 534.695 330C522.279 380.86 489.348 421.994 452.844 459.523C409.204 504.39 366.872 563.521 304.368 566.8C241.473 570.099 193.649 514.628 144.125 475.718C96.646 438.414 46.8048 402.148 23.7669 346.335C-0.445023 287.678 -10.3039 219.42 14.1646 160.87C37.8785 104.125 96.617 73.0633 150.419 43.2707C198.208 16.8083 249.785 -2.01139 304.368 0.172184Z" fill="#9302FF"/>
</svg>
