<svg width="677" height="900" viewBox="0 0 677 900" fill="none" xmlns="http://www.w3.org/2000/svg">
<g filter="url(#filter0_d)">
<rect x="129" y="77" width="419" height="746" rx="10" fill="#F5F7F8"/>
</g>
<g filter="url(#filter1_i)">
<circle cx="335.5" cy="400.5" r="117.5" fill="#F5F7F8"/>
</g>
<g filter="url(#filter2_d)">
<circle cx="336" cy="400" r="11" fill="#F5F7F8"/>
</g>
<circle cx="336" cy="400" r="11" fill="#F5F7F8"/>
<g filter="url(#filter3_d)">
<rect x="274" y="395" width="40" height="6" rx="3" fill="#9302FF"/>
</g>
<circle cx="335.973" cy="399.973" r="11" transform="rotate(-119.255 335.973 399.973)" fill="#F5F7F8"/>
<g filter="url(#filter4_d)">
<rect x="375.369" y="472.353" width="60.4018" height="1" rx="0.5" transform="rotate(-119.255 375.369 472.353)" fill="#9302FF"/>
</g>
<circle cx="335.935" cy="399.529" r="11" transform="rotate(107.428 335.935 399.529)" fill="#F5F7F8"/>
<g filter="url(#filter5_d)">
<rect x="358.724" y="330.27" width="50.9053" height="2" rx="1" transform="rotate(107.428 358.724 330.27)" fill="#524E4E"/>
</g>
<path d="M362.84 179.1C362.587 179.1 362.373 179.013 362.2 178.84C362.027 178.667 361.94 178.453 361.94 178.2V166.26C361.94 165.9 362.067 165.593 362.32 165.34C362.573 165.073 362.88 164.94 363.24 164.94H363.9C364.167 164.94 364.407 165.02 364.62 165.18C364.847 165.34 365.013 165.54 365.12 165.78L369.66 177.1L374.2 165.78C374.307 165.54 374.467 165.34 374.68 165.18C374.907 165.02 375.153 164.94 375.42 164.94H376.08C376.44 164.94 376.747 165.073 377 165.34C377.253 165.593 377.38 165.9 377.38 166.26V178.2C377.38 178.453 377.293 178.667 377.12 178.84C376.947 179.013 376.733 179.1 376.48 179.1C376.227 179.1 376.007 179.013 375.82 178.84C375.647 178.667 375.56 178.453 375.56 178.2V166.84L370.94 178.26C370.833 178.513 370.66 178.72 370.42 178.88C370.193 179.027 369.94 179.1 369.66 179.1C369.38 179.1 369.12 179.027 368.88 178.88C368.653 178.72 368.487 178.513 368.38 178.26L363.76 166.84V178.2C363.76 178.453 363.667 178.667 363.48 178.84C363.307 179.013 363.093 179.1 362.84 179.1ZM381.216 179.1C380.95 179.1 380.73 179.013 380.556 178.84C380.396 178.667 380.316 178.453 380.316 178.2C380.316 178.093 380.35 177.96 380.416 177.8L385.516 165.76C385.623 165.52 385.77 165.327 385.956 165.18C386.156 165.02 386.396 164.94 386.676 164.94H386.876C387.156 164.94 387.39 165.02 387.576 165.18C387.776 165.327 387.93 165.52 388.036 165.76L393.136 177.8C393.203 177.96 393.236 178.093 393.236 178.2C393.236 178.453 393.15 178.667 392.976 178.84C392.816 179.013 392.603 179.1 392.336 179.1C392.15 179.1 391.976 179.053 391.816 178.96C391.67 178.853 391.556 178.713 391.476 178.54L390.176 175.42H383.376L382.076 178.54C381.996 178.713 381.876 178.853 381.716 178.96C381.57 179.053 381.403 179.1 381.216 179.1ZM384.076 173.76H389.476L386.776 167.26L384.076 173.76ZM397.078 179.1C396.825 179.1 396.612 179.013 396.438 178.84C396.265 178.667 396.178 178.453 396.178 178.2V165.96C396.178 165.707 396.265 165.493 396.438 165.32C396.612 165.133 396.825 165.04 397.078 165.04H401.738C403.552 165.04 404.912 165.413 405.818 166.16C406.725 166.907 407.178 167.887 407.178 169.1C407.178 169.9 406.952 170.633 406.498 171.3C406.058 171.953 405.412 172.427 404.558 172.72C405.518 172.973 406.172 173.573 406.518 174.52C406.878 175.453 407.058 176.373 407.058 177.28V178.2C407.058 178.453 406.972 178.667 406.798 178.84C406.625 179.013 406.412 179.1 406.158 179.1C405.878 179.1 405.652 179.02 405.478 178.86C405.318 178.687 405.238 178.467 405.238 178.2V177.6C405.238 176.933 405.178 176.32 405.058 175.76C404.938 175.187 404.652 174.68 404.198 174.24C403.745 173.787 403.058 173.56 402.138 173.56H397.998V178.2C397.998 178.453 397.905 178.667 397.718 178.84C397.545 179.013 397.332 179.1 397.078 179.1ZM401.618 171.84C402.765 171.84 403.672 171.613 404.338 171.16C405.018 170.707 405.358 170.067 405.358 169.24C405.358 168.44 405.065 167.827 404.478 167.4C403.905 166.973 402.918 166.76 401.518 166.76H397.998V171.84H401.618ZM416.577 179.2C415.243 179.2 414.043 178.913 412.977 178.34C411.923 177.753 411.09 176.92 410.477 175.84C409.877 174.747 409.577 173.473 409.577 172.02C409.577 170.567 409.877 169.3 410.477 168.22C411.09 167.127 411.923 166.293 412.977 165.72C414.043 165.133 415.243 164.84 416.577 164.84C417.483 164.84 418.29 164.947 418.997 165.16C419.717 165.373 420.43 165.68 421.137 166.08C421.43 166.24 421.577 166.493 421.577 166.84C421.577 167.04 421.503 167.22 421.357 167.38C421.21 167.527 421.017 167.6 420.777 167.6C420.643 167.6 420.523 167.573 420.417 167.52C419.83 167.213 419.257 166.98 418.697 166.82C418.137 166.66 417.49 166.58 416.757 166.58C415.61 166.58 414.63 166.82 413.817 167.3C413.017 167.767 412.41 168.413 411.997 169.24C411.597 170.053 411.397 170.98 411.397 172.02C411.397 173.06 411.597 173.993 411.997 174.82C412.41 175.633 413.017 176.28 413.817 176.76C414.63 177.227 415.61 177.46 416.757 177.46C417.49 177.46 418.137 177.38 418.697 177.22C419.257 177.06 419.83 176.827 420.417 176.52C420.523 176.467 420.643 176.44 420.777 176.44C421.017 176.44 421.21 176.513 421.357 176.66C421.503 176.807 421.577 176.987 421.577 177.2C421.577 177.547 421.43 177.8 421.137 177.96C420.43 178.36 419.717 178.667 418.997 178.88C418.29 179.093 417.483 179.2 416.577 179.2ZM425.223 179.1C424.969 179.1 424.756 179.013 424.583 178.84C424.409 178.667 424.323 178.453 424.323 178.2V165.86C424.323 165.607 424.409 165.393 424.583 165.22C424.756 165.033 424.969 164.94 425.223 164.94C425.476 164.94 425.689 165.033 425.863 165.22C426.049 165.393 426.143 165.607 426.143 165.86V171.18H433.723V165.86C433.723 165.607 433.809 165.393 433.983 165.22C434.156 165.033 434.369 164.94 434.623 164.94C434.876 164.94 435.089 165.033 435.263 165.22C435.449 165.393 435.543 165.607 435.543 165.86V178.2C435.543 178.453 435.449 178.667 435.263 178.84C435.089 179.013 434.876 179.1 434.623 179.1C434.369 179.1 434.156 179.013 433.983 178.84C433.809 178.667 433.723 178.453 433.723 178.2V172.88H426.143V178.2C426.143 178.453 426.049 178.667 425.863 178.84C425.689 179.013 425.476 179.1 425.223 179.1Z" fill="#9302FF"/>
<path d="M323.72 213C323.107 213 322.6 212.813 322.2 212.44C321.8 212.04 321.6 211.533 321.6 210.92C321.6 209.533 322 208.253 322.8 207.08C323.627 205.907 324.613 204.88 325.76 204C326.933 203.093 328.467 202.027 330.36 200.8C331.987 199.76 333.28 198.88 334.24 198.16C335.2 197.44 336 196.653 336.64 195.8C337.28 194.947 337.6 194.04 337.6 193.08C337.6 191.56 337.093 190.36 336.08 189.48C335.093 188.573 333.493 188.12 331.28 188.12C328.88 188.12 326.6 188.6 324.44 189.56C324.173 189.693 323.92 189.76 323.68 189.76C323.253 189.76 322.893 189.613 322.6 189.32C322.307 189.027 322.16 188.653 322.16 188.2C322.16 187.533 322.453 187.04 323.04 186.72C325.76 185.36 328.72 184.68 331.92 184.68C333.627 184.68 335.173 185.027 336.56 185.72C337.973 186.387 339.08 187.333 339.88 188.56C340.707 189.787 341.12 191.2 341.12 192.8C341.12 194.373 340.653 195.84 339.72 197.2C338.813 198.533 337.72 199.707 336.44 200.72C335.16 201.733 333.493 202.907 331.44 204.24C329.573 205.493 328.16 206.507 327.2 207.28C326.267 208.027 325.613 208.8 325.24 209.6H339.16C339.64 209.6 340.04 209.773 340.36 210.12C340.707 210.44 340.88 210.84 340.88 211.32C340.88 211.8 340.707 212.2 340.36 212.52C340.04 212.84 339.64 213 339.16 213H323.72ZM357.437 213.4C350.131 213.4 346.477 208.627 346.477 199.08C346.477 196.76 346.851 194.507 347.597 192.32C348.371 190.133 349.624 188.32 351.357 186.88C353.091 185.413 355.331 184.68 358.077 184.68C359.571 184.68 360.877 184.84 361.997 185.16C363.117 185.48 364.171 185.893 365.157 186.4C365.397 186.533 365.597 186.733 365.757 187C365.917 187.267 365.997 187.547 365.997 187.84C365.997 188.267 365.837 188.653 365.517 189C365.224 189.32 364.837 189.48 364.357 189.48C364.117 189.48 363.891 189.44 363.677 189.36C362.024 188.587 360.251 188.2 358.357 188.2C355.344 188.2 353.224 189.253 351.997 191.36C350.771 193.467 350.091 195.827 349.957 198.44C350.757 197.427 351.824 196.587 353.157 195.92C354.491 195.253 356.157 194.92 358.157 194.92C359.971 194.92 361.557 195.307 362.917 196.08C364.304 196.853 365.384 197.947 366.157 199.36C366.931 200.773 367.317 202.427 367.317 204.32C367.317 206 366.917 207.533 366.117 208.92C365.317 210.307 364.171 211.4 362.677 212.2C361.184 213 359.437 213.4 357.437 213.4ZM357.477 210C358.704 210 359.784 209.747 360.717 209.24C361.677 208.707 362.411 208 362.917 207.12C363.424 206.24 363.677 205.28 363.677 204.24C363.677 202.427 363.171 200.973 362.157 199.88C361.144 198.787 359.664 198.24 357.717 198.24C354.251 198.24 351.731 199.707 350.157 202.64C350.877 207.547 353.317 210 357.477 210Z" fill="black"/>
<path d="M386.9 665.1C386.633 665.1 386.413 665.013 386.24 664.84C386.08 664.667 386 664.453 386 664.2C386 664.093 386.033 663.96 386.1 663.8L391.2 651.76C391.307 651.52 391.453 651.327 391.64 651.18C391.84 651.02 392.08 650.94 392.36 650.94H392.56C392.84 650.94 393.073 651.02 393.26 651.18C393.46 651.327 393.613 651.52 393.72 651.76L398.82 663.8C398.887 663.96 398.92 664.093 398.92 664.2C398.92 664.453 398.833 664.667 398.66 664.84C398.5 665.013 398.287 665.1 398.02 665.1C397.833 665.1 397.66 665.053 397.5 664.96C397.353 664.853 397.24 664.713 397.16 664.54L395.86 661.42H389.06L387.76 664.54C387.68 664.713 387.56 664.853 387.4 664.96C387.253 665.053 387.087 665.1 386.9 665.1ZM389.76 659.76H395.16L392.46 653.26L389.76 659.76ZM402.762 665.1C402.509 665.1 402.295 665.013 402.122 664.84C401.949 664.667 401.862 664.453 401.862 664.2V652.26C401.862 651.9 401.989 651.593 402.242 651.34C402.495 651.073 402.802 650.94 403.162 650.94H403.822C404.089 650.94 404.329 651.02 404.542 651.18C404.769 651.34 404.935 651.54 405.042 651.78L409.582 663.1L414.122 651.78C414.229 651.54 414.389 651.34 414.602 651.18C414.829 651.02 415.075 650.94 415.342 650.94H416.002C416.362 650.94 416.669 651.073 416.922 651.34C417.175 651.593 417.302 651.9 417.302 652.26V664.2C417.302 664.453 417.215 664.667 417.042 664.84C416.869 665.013 416.655 665.1 416.402 665.1C416.149 665.1 415.929 665.013 415.742 664.84C415.569 664.667 415.482 664.453 415.482 664.2V652.84L410.862 664.26C410.755 664.513 410.582 664.72 410.342 664.88C410.115 665.027 409.862 665.1 409.582 665.1C409.302 665.1 409.042 665.027 408.802 664.88C408.575 664.72 408.409 664.513 408.302 664.26L403.682 652.84V664.2C403.682 664.453 403.589 664.667 403.402 664.84C403.229 665.013 403.015 665.1 402.762 665.1Z" fill="#9302FF"/>
<path d="M288.08 708C287.6 708 287.2 707.84 286.88 707.52C286.56 707.2 286.4 706.8 286.4 706.32C286.4 705.84 286.56 705.44 286.88 705.12C287.2 704.773 287.6 704.6 288.08 704.6H292.84V684.32L288.76 686.32C288.387 686.48 288.08 686.56 287.84 686.56C287.333 686.56 286.92 686.4 286.6 686.08C286.28 685.76 286.12 685.347 286.12 684.84C286.12 684.093 286.467 683.547 287.16 683.2L292.6 680.36C292.973 680.173 293.347 680.08 293.72 680.08H294.56C295.093 680.08 295.547 680.267 295.92 680.64C296.293 681.013 296.48 681.467 296.48 682V704.6H300.44C300.92 704.6 301.32 704.773 301.64 705.12C301.987 705.44 302.16 705.84 302.16 706.32C302.16 706.8 301.987 707.2 301.64 707.52C301.32 707.84 300.92 708 300.44 708H288.08ZM313.197 708C312.717 708 312.317 707.84 311.997 707.52C311.677 707.2 311.517 706.8 311.517 706.32C311.517 705.84 311.677 705.44 311.997 705.12C312.317 704.773 312.717 704.6 313.197 704.6H317.957V684.32L313.877 686.32C313.504 686.48 313.197 686.56 312.957 686.56C312.451 686.56 312.037 686.4 311.717 686.08C311.397 685.76 311.237 685.347 311.237 684.84C311.237 684.093 311.584 683.547 312.277 683.2L317.717 680.36C318.091 680.173 318.464 680.08 318.837 680.08H319.677C320.211 680.08 320.664 680.267 321.037 680.64C321.411 681.013 321.597 681.467 321.597 682V704.6H325.557C326.037 704.6 326.437 704.773 326.757 705.12C327.104 705.44 327.277 705.84 327.277 706.32C327.277 706.8 327.104 707.2 326.757 707.52C326.437 707.84 326.037 708 325.557 708H313.197ZM336.234 708.12C335.621 708.12 335.088 707.907 334.634 707.48C334.208 707.027 333.994 706.493 333.994 705.88V705.64C333.994 705.027 334.208 704.507 334.634 704.08C335.088 703.627 335.621 703.4 336.234 703.4H336.634C337.248 703.4 337.768 703.627 338.194 704.08C338.648 704.507 338.874 705.027 338.874 705.64V705.88C338.874 706.493 338.648 707.027 338.194 707.48C337.768 707.907 337.248 708.12 336.634 708.12H336.234ZM354.185 708.4C350.665 708.4 347.972 707.107 346.105 704.52C344.265 701.933 343.345 698.44 343.345 694.04C343.345 689.64 344.265 686.147 346.105 683.56C347.972 680.973 350.665 679.68 354.185 679.68C357.678 679.68 360.358 680.973 362.225 683.56C364.092 686.147 365.025 689.64 365.025 694.04C365.025 698.44 364.092 701.933 362.225 704.52C360.358 707.107 357.678 708.4 354.185 708.4ZM354.185 705.04C356.505 705.04 358.278 704.067 359.505 702.12C360.758 700.173 361.385 697.48 361.385 694.04C361.385 690.627 360.758 687.947 359.505 686C358.278 684.053 356.505 683.08 354.185 683.08C351.865 683.08 350.078 684.053 348.825 686C347.598 687.947 346.985 690.627 346.985 694.04C346.985 697.48 347.598 700.173 348.825 702.12C350.078 704.067 351.865 705.04 354.185 705.04ZM384.062 708.2C383.556 708.2 383.129 708.027 382.782 707.68C382.436 707.333 382.262 706.907 382.262 706.4V700.96H370.062C369.422 700.96 368.876 700.747 368.422 700.32C367.969 699.867 367.742 699.32 367.742 698.68V698.32C367.742 697.76 367.902 697.28 368.222 696.88L380.782 680.84C380.996 680.547 381.276 680.32 381.622 680.16C381.996 679.973 382.382 679.88 382.782 679.88H383.582C384.276 679.88 384.836 680.107 385.262 680.56C385.689 680.987 385.902 681.533 385.902 682.2V697.72H388.942C389.396 697.72 389.782 697.88 390.102 698.2C390.422 698.52 390.582 698.907 390.582 699.36C390.582 699.813 390.422 700.2 390.102 700.52C389.782 700.813 389.396 700.96 388.942 700.96H385.902V706.4C385.902 706.907 385.716 707.333 385.342 707.68C384.996 708.027 384.569 708.2 384.062 708.2ZM371.622 697.72H382.262V684L371.622 697.72Z" fill="black"/>
<defs>
<filter id="filter0_d" x="0" y="-52" width="677" height="1004" filterUnits="userSpaceOnUse" color-interpolation-filters="sRGB">
<feFlood flood-opacity="0" result="BackgroundImageFix"/>
<feColorMatrix in="SourceAlpha" type="matrix" values="0 0 0 0 0 0 0 0 0 0 0 0 0 0 0 0 0 0 127 0"/>
<feOffset/>
<feGaussianBlur stdDeviation="64.5"/>
<feColorMatrix type="matrix" values="0 0 0 0 0 0 0 0 0 0 0 0 0 0 0 0 0 0 0.15 0"/>
<feBlend mode="normal" in2="BackgroundImageFix" result="effect1_dropShadow"/>
<feBlend mode="normal" in="SourceGraphic" in2="effect1_dropShadow" result="shape"/>
</filter>
<filter id="filter1_i" x="218" y="283" width="235" height="239" filterUnits="userSpaceOnUse" color-interpolation-filters="sRGB">
<feFlood flood-opacity="0" result="BackgroundImageFix"/>
<feBlend mode="normal" in="SourceGraphic" in2="BackgroundImageFix" result="shape"/>
<feColorMatrix in="SourceAlpha" type="matrix" values="0 0 0 0 0 0 0 0 0 0 0 0 0 0 0 0 0 0 127 0" result="hardAlpha"/>
<feOffset dy="4"/>
<feGaussianBlur stdDeviation="12"/>
<feComposite in2="hardAlpha" operator="arithmetic" k2="-1" k3="1"/>
<feColorMatrix type="matrix" values="0 0 0 0 0 0 0 0 0 0 0 0 0 0 0 0 0 0 0.13 0"/>
<feBlend mode="normal" in2="shape" result="effect1_innerShadow"/>
</filter>
<filter id="filter2_d" x="317" y="381" width="38" height="38" filterUnits="userSpaceOnUse" color-interpolation-filters="sRGB">
<feFlood flood-opacity="0" result="BackgroundImageFix"/>
<feColorMatrix in="SourceAlpha" type="matrix" values="0 0 0 0 0 0 0 0 0 0 0 0 0 0 0 0 0 0 127 0"/>
<feOffset/>
<feGaussianBlur stdDeviation="4"/>
<feColorMatrix type="matrix" values="0 0 0 0 0 0 0 0 0 0 0 0 0 0 0 0 0 0 0.21 0"/>
<feBlend mode="normal" in2="BackgroundImageFix" result="effect1_dropShadow"/>
<feBlend mode="normal" in="SourceGraphic" in2="effect1_dropShadow" result="shape"/>
</filter>
<filter id="filter3_d" x="255" y="376" width="78" height="44" filterUnits="userSpaceOnUse" color-interpolation-filters="sRGB">
<feFlood flood-opacity="0" result="BackgroundImageFix"/>
<feColorMatrix in="SourceAlpha" type="matrix" values="0 0 0 0 0 0 0 0 0 0 0 0 0 0 0 0 0 0 127 0"/>
<feOffset/>
<feGaussianBlur stdDeviation="9.5"/>
<feColorMatrix type="matrix" values="0 0 0 0 0.576471 0 0 0 0 0.00784314 0 0 0 0 1 0 0 0 0.29 0"/>
<feBlend mode="normal" in2="BackgroundImageFix" result="effect1_dropShadow"/>
<feBlend mode="normal" in="SourceGraphic" in2="effect1_dropShadow" result="shape"/>
</filter>
<filter id="filter4_d" x="326.851" y="400.167" width="68.3903" height="91.1866" filterUnits="userSpaceOnUse" color-interpolation-filters="sRGB">
<feFlood flood-opacity="0" result="BackgroundImageFix"/>
<feColorMatrix in="SourceAlpha" type="matrix" values="0 0 0 0 0 0 0 0 0 0 0 0 0 0 0 0 0 0 127 0"/>
<feOffset/>
<feGaussianBlur stdDeviation="9.5"/>
<feColorMatrix type="matrix" values="0 0 0 0 0.576471 0 0 0 0 0.00784314 0 0 0 0 1 0 0 0 0.29 0"/>
<feBlend mode="normal" in2="BackgroundImageFix" result="effect1_dropShadow"/>
<feBlend mode="normal" in="SourceGraphic" in2="effect1_dropShadow" result="shape"/>
</filter>
<filter id="filter5_d" x="322.57" y="310.671" width="55.1547" height="87.1675" filterUnits="userSpaceOnUse" color-interpolation-filters="sRGB">
<feFlood flood-opacity="0" result="BackgroundImageFix"/>
<feColorMatrix in="SourceAlpha" type="matrix" values="0 0 0 0 0 0 0 0 0 0 0 0 0 0 0 0 0 0 127 0"/>
<feOffset/>
<feGaussianBlur stdDeviation="9.5"/>
<feColorMatrix type="matrix" values="0 0 0 0 0.576471 0 0 0 0 0.00784314 0 0 0 0 1 0 0 0 0.29 0"/>
<feBlend mode="normal" in2="BackgroundImageFix" result="effect1_dropShadow"/>
<feBlend mode="normal" in="SourceGraphic" in2="effect1_dropShadow" result="shape"/>
</filter>
</defs>
</svg>
