<svg xmlns="http://www.w3.org/2000/svg" viewBox="0 0 496 496"><defs><style>.cls-1{fill:none;stroke:#000;stroke-miterlimit:10;stroke-width:2px;}</style></defs><title>dots</title><g id="Layer_2" data-name="Layer 2"><g id="Layer_1-2" data-name="Layer 1"><g id="dots"><line class="cls-1" x1="496" y1="248" x2="457" y2="248"/><line class="cls-1" x1="39" y1="248" y2="248"/><line class="cls-1" x1="462.77" y1="124" x2="429.03" y2="143.48"/><line class="cls-1" x1="66.97" y1="352.52" x2="33.23" y2="372"/><line class="cls-1" x1="372" y1="33.23" x2="352.52" y2="66.97"/><line class="cls-1" x1="143.48" y1="429.03" x2="124" y2="462.77"/><line class="cls-1" x1="248" y1="39" x2="248"/><line class="cls-1" x1="248" y1="496" x2="248" y2="457"/><line class="cls-1" x1="143.48" y1="66.97" x2="124" y2="33.23"/><line class="cls-1" x1="372" y1="462.77" x2="352.52" y2="429.03"/><line class="cls-1" x1="66.97" y1="143.48" x2="33.23" y2="124"/><line class="cls-1" x1="462.77" y1="372" x2="429.03" y2="352.52"/><path class="cls-1" d="M1.36,273.92l14.11-1.49"/><path class="cls-1" d="M494.64,222.08l-11.72,1.23"/><path class="cls-1" d="M5.42,299.56l14-3"/><path class="cls-1" d="M490.58,196.44l-11.31,2.4"/><path class="cls-1" d="M12.14,324.64,26,320.16"/><path class="cls-1" d="M483.86,171.36,473,174.88"/><path class="cls-1" d="M21.44,348.87l13.41-6"/><path class="cls-1" d="M474.56,147.13l-10.25,4.56"/><path class="cls-1" d="M47.36,393.77,59.48,385"/><path class="cls-1" d="M448.64,102.23l-8.91,6.47"/><path class="cls-1" d="M63.7,413.94l11.2-10.09"/><path class="cls-1" d="M432.3,82.06l-8.12,7.3"/><path class="cls-1" d="M82.06,432.3,92.2,421"/><path class="cls-1" d="M413.94,63.7l-7.25,8.06"/><path class="cls-1" d="M102.23,448.64l8.93-12.3"/><path class="cls-1" d="M393.77,47.36l-6.34,8.73"/><path class="cls-1" d="M147.13,474.56l6.17-13.87"/><path class="cls-1" d="M348.87,21.44l-4.35,9.79"/><path class="cls-1" d="M171.36,483.86,176,469.45"/><path class="cls-1" d="M324.64,12.14l-3.32,10.2"/><path class="cls-1" d="M196.44,490.58l3.14-14.79"/><path class="cls-1" d="M299.56,5.42s-.78,3.69-2.24,10.55"/><path class="cls-1" d="M222.08,494.64s.56-5.29,1.57-15"/><path class="cls-1" d="M273.92,1.36s-.4,3.79-1.13,10.83"/><path class="cls-1" d="M272.37,479.85c1,9.57,1.55,14.79,1.55,14.79"/><path class="cls-1" d="M223.23,12.4c-.74-7.18-1.15-11-1.15-11"/><path class="cls-1" d="M296.5,476.2l3.06,14.38"/><path class="cls-1" d="M198.77,16.38c-1.51-7.12-2.33-11-2.33-11"/><path class="cls-1" d="M320.15,470l4.49,13.82"/><path class="cls-1" d="M174.87,22.94l-3.51-10.8"/><path class="cls-1" d="M343,461.43l5.84,13.13"/><path class="cls-1" d="M151.82,32l-4.69-10.54"/><path class="cls-1" d="M385.53,437.29l8.24,11.35"/><path class="cls-1" d="M109.26,57.05l-7-9.69"/><path class="cls-1" d="M404.69,422c5.1,5.66,8.22,9.12,9,10l.1.1.07.08,0,0v0"/><path class="cls-1" d="M82.06,63.7v0l0,0,.07.08.1.1,7.94,8.82"/><path class="cls-1" d="M422.19,404.84l10.11,9.1"/><path class="cls-1" d="M72.92,90.36l-9.22-8.3"/><path class="cls-1" d="M437.82,385.91l10.82,7.86"/><path class="cls-1" d="M57.58,109.65l-10.22-7.42"/><path class="cls-1" d="M451.43,365.44,462.77,372"/><path class="cls-1" d="M462.81,343.64l11.75,5.23"/><path class="cls-1" d="M33.37,152.44l-11.93-5.31"/><path class="cls-1" d="M12.14,171.36l12.39,4,.24.08"/><path class="cls-1" d="M483.86,324.64l-12-3.9"/><path class="cls-1" d="M5.42,196.44l13.23,2.81"/><path class="cls-1" d="M490.58,299.56,478.45,297"/><path class="cls-1" d="M1.36,222.08l13.7,1.44"/><path class="cls-1" d="M494.64,273.92l-12.13-1.27"/></g></g></g></svg>